<?xml version="1.0" encoding="UTF-8"?><svg id="a" xmlns="http://www.w3.org/2000/svg" width="100" height="100" xmlns:xlink="http://www.w3.org/1999/xlink" viewBox="0 0 100 100"><defs><linearGradient id="d" x1="20.11" y1="61.06" x2="95.29" y2="61.06" gradientUnits="userSpaceOnUse"><stop offset="0" stop-color="#2b41f0"/><stop offset="1" stop-color="#722aef"/></linearGradient><linearGradient id="f" x1="4.71" y1="30.85" x2="39.94" y2="30.85" xlink:href="#d"/><linearGradient id="h" x1="38.74" y1="9.94" x2="57.42" y2="9.94" xlink:href="#d"/></defs><g id="b"><g id="c"><path d="M94.26,59.5l-17.7-7.72c-4.28-1.86-7.69-5.28-9.55-9.55l-7.72-17.7c-.6-1.37-2.55-1.37-3.15,0l-7.72,17.7c-1.86,4.28-5.28,7.69-9.55,9.55l-17.72,7.73c-1.37.6-1.37,2.54,0,3.14l18.03,7.97c4.27,1.88,7.67,5.32,9.51,9.61l7.47,17.36c.59,1.38,2.55,1.38,3.15,0l7.71-17.67c1.86-4.28,5.28-7.69,9.55-9.55l17.7-7.72c1.37-.6,1.37-2.55,0-3.15Z" fill="url(#d)" stroke-width="0"/></g><g id="e"><path d="M23.07,47.97l3.62-8.29c.87-2,2.47-3.61,4.48-4.48l8.3-3.62c.64-.28.64-1.2,0-1.47l-8.3-3.62c-2-.87-3.61-2.47-4.48-4.48l-3.62-8.3c-.28-.64-1.2-.64-1.47,0l-3.62,8.3c-.87,2-2.47,3.61-4.48,4.48l-8.31,3.63c-.64.28-.64,1.19,0,1.47l8.45,3.74c2,.88,3.59,2.49,4.45,4.5l3.51,8.14c.28.64,1.2.65,1.47,0h-.01Z" fill="url(#f)" stroke-width="0"/></g><g id="g"><path d="M38.98,10.33l4.49,1.98c1.07.47,1.91,1.33,2.36,2.39l1.86,4.32c.15.35.63.35.78,0l1.92-4.4c.47-1.07,1.32-1.92,2.37-2.37l4.4-1.92c.34-.15.34-.63,0-.78l-4.4-1.92c-1.07-.47-1.92-1.32-2.37-2.37l-1.92-4.4c-.15-.34-.63-.34-.78,0l-1.92,4.4c-.47,1.07-1.32,1.92-2.37,2.37l-4.41,1.93c-.34.15-.34.63,0,.78h-.01Z" fill="url(#h)" stroke-width="0"/></g></g></svg>