<?xml version="1.0" encoding="UTF-8"?><svg id="a" xmlns="http://www.w3.org/2000/svg" width="826" height="826" xmlns:xlink="http://www.w3.org/1999/xlink" viewBox="0 0 826 826"><defs><linearGradient id="b" x1="138.54" y1="13.67" x2="797.94" y2="627.4" gradientTransform="translate(0 826) scale(1 -1)" gradientUnits="userSpaceOnUse"><stop offset="0" stop-color="#2b41f0"/><stop offset="1" stop-color="#722aef"/></linearGradient></defs><path d="M279.75,758.61l-31.47,13.75c-5.52,2.4-10.23,6.24-13.64,11.09-1.32,1.83-2.44,3.79-3.35,5.89l-13.71,31.42c-.53,1.23-1.67,1.83-2.81,1.83s-2.27-.6-2.79-1.83l-13.28-30.89c-3.29-7.63-9.32-13.72-16.91-17.07l-32.06-14.19c-2.19-.96-2.41-3.8-.7-5.14.2-.18.43-.32.7-.42l31.51-13.77c7.59-3.31,13.67-9.37,16.98-16.98l13.74-31.48c.54-1.22,1.66-1.83,2.8-1.83s2.27.61,2.79,1.83l13.74,31.48c3.31,7.59,9.37,13.67,16.99,16.98l31.47,13.75c2.44,1.05,2.44,4.51,0,5.58Z" fill="#ffab02" stroke-width="0"/><path d="M148.11,493.37l12.38-28.64c2.98-6.91,8.45-12.47,15.32-15.48l28.39-12.5c2.19-.97,2.19-4.14,0-5.08l-28.39-12.5c-6.84-3.01-12.35-8.53-15.32-15.48l-12.38-28.67c-.96-2.21-4.1-2.21-5.03,0l-12.38,28.67c-2.97,6.91-8.45,12.47-15.32,15.48l-28.42,12.54c-2.19.97-2.19,4.11,0,5.08l28.9,12.92c6.84,3.04,12.28,8.6,15.22,15.54l12,28.12c.96,2.21,4.1,2.24,5.03,0h0Z" fill="#ffab02" stroke-width="0"/><path d="M556.02,334.02l36.83,16.26c8.75,3.85,15.64,10.92,19.39,19.58l15.28,35.48c1.24,2.87,5.18,2.87,6.44,0l15.73-36.13c3.85-8.75,10.8-15.73,19.5-19.5l36.13-15.73c2.76-1.24,2.76-5.18,0-6.44l-36.13-15.73c-8.75-3.86-15.73-10.8-19.5-19.5l-15.73-36.13c-1.24-2.76-5.18-2.76-6.44,0l-15.73,36.13c-3.85,8.75-10.8,15.73-19.5,19.5l-36.21,15.81c-2.76,1.24-2.76,5.18,0,6.44l-.08-.09.03.03v.02Z" fill="#ffab02" stroke-width="0"/><path d="M685.64,605.25l-172.82-1.39c-10.55,27.18-36.85,46.57-67.64,46.92-.49,0-.97,0-1.46,0h-65.2c-.29,0-.59,0-.88,0-31.12-.63-57.57-20.72-67.61-48.56h-167.96c-33.68,29.45-67.35,58.89-101.02,88.32l-.29.25c18.17,12.34,49.23,32.11,91.38,51.74,1.14-1.62,2.49-3.1,4.03-4.38,1.72-1.45,3.63-2.62,5.71-3.5l31.37-13.7c2.98-1.3,5.34-3.65,6.64-6.65l13.73-31.44c3.66-8.43,11.91-13.87,21.14-13.87s17.51,5.45,21.15,13.91l13.72,31.41c1.3,2.99,3.65,5.34,6.65,6.64l31.44,13.73c8.39,3.65,13.83,11.9,13.86,21.06.03,9.19-5.39,17.51-13.82,21.2l-24.81,10.83c41.47,9.66,87.54,16.2,137.64,17.04,1.77.03,3.55.05,5.34.07,2.96.02,5.93.02,8.92.01,1.49-.01,2.98-.02,4.47-.04,187.72-2.18,319.65-83.93,367.65-117.09l-101.33-82.51ZM483.12,488.16c-7.88-12.75-21.85-21.3-37.88-21.61-.34-.02-.68-.02-1.02-.02h-65.09c-16.39,0-30.77,8.64-38.8,21.63-4.32,6.96-6.81,15.19-6.81,23.98v65.2c0,.6.01,1.22.04,1.82.33,8.58,3.05,16.58,7.52,23.3,8.15,12.36,22.16,20.49,38.05,20.49h65.19c15.42,0,29.04-7.64,37.28-19.34,4.94-6.97,7.95-15.37,8.29-24.45.03-.6.05-1.22.05-1.82v-65.2c0-8.79-2.49-17.02-6.82-23.98ZM627.72,513.06c-.2-.01-.4-.01-.6-.01h-109.35v64.29c0,.62,0,1.22-.03,1.82h0s155.77.01,155.77.01v-19.73c0-25.42-20.44-46.07-45.79-46.38ZM305.68,577.34v-64.29h-106.91c-25.62,0-46.39,20.77-46.39,46.39v19.73h153.33c-.03-.6-.03-1.21-.03-1.83ZM560.67,4.03l-.41.29-290.79,207.19-55.22,276.65h0s95.45.01,95.45.01c9.96-28.76,37.33-49.47,69.43-49.47h65.19c32.11,0,59.46,20.71,69.43,49.46h0s91.2.01,91.2.01l-101.91-190.49,62.19-116.92-32.27-14.38c-7.1-3.16-10.3-11.49-7.13-18.59,2.32-5.23,7.42-8.32,12.78-8.36h.1c1.92,0,3.87.4,5.72,1.22l65.24,29.05,96.34,42.05.87.38L560.67,4.03Z" fill="url(#b)" fill-rule="evenodd" stroke-width="0"/></svg>