<svg width="1745" height="733" viewBox="0 0 1745 733" fill="none" xmlns="http://www.w3.org/2000/svg">
<g clip-path="url(#clip0_4004_1215)">
<rect width="1745" height="733" rx="60.6918" fill="white"/>
<path fill-rule="evenodd" clip-rule="evenodd" d="M430.895 155.848C428.34 161.567 430.92 168.284 436.639 170.826L462.645 182.414L412.528 276.63L494.657 430.134H421.163C413.138 406.957 391.083 390.272 365.214 390.272H312.68C286.811 390.272 264.755 406.957 256.731 430.134H179.81L224.308 207.199L458.969 40L576.798 207.697L498.457 173.505L445.885 150.091C444.39 149.431 442.82 149.107 441.275 149.107C436.926 149.107 432.776 151.611 430.895 155.848ZM253.515 503.467H129.954V487.567C129.954 466.92 146.689 450.185 167.336 450.185H253.49V501.997C253.49 502.495 253.49 502.981 253.515 503.467ZM549.907 503.467V487.567C549.907 466.92 533.172 450.185 512.525 450.185H424.402V501.997C424.402 502.495 424.402 502.981 424.377 503.467H549.907ZM401.973 449.457V501.992C401.973 502.478 401.961 502.976 401.936 503.462C401.662 510.776 399.232 517.543 395.257 523.162C388.615 532.595 377.637 538.751 365.214 538.751H312.679C299.869 538.751 288.58 532.197 282.013 522.24C278.412 516.82 276.219 510.378 275.957 503.462C275.932 502.976 275.92 502.478 275.92 501.992V449.457C275.92 442.367 277.926 435.738 281.415 430.13C287.882 419.663 299.471 412.698 312.679 412.698H365.214C378.435 412.698 390.011 419.663 396.478 430.13C399.967 435.738 401.973 442.367 401.973 449.457ZM345.065 685.329C496.338 683.572 602.654 617.692 641.332 590.976L559.677 524.486L420.415 523.364C411.829 545.469 390.322 561.183 365.214 561.183H312.679C287.072 561.183 265.216 544.834 256.992 522.043H121.643C94.4287 545.843 67.2143 569.631 40 593.419C55.6881 604.073 83.2763 621.58 120.995 638.464C122.627 635.249 125.344 632.633 128.771 631.125L150.851 621.493C153.019 620.546 154.739 618.839 155.673 616.67L165.306 594.615C167.823 588.845 173.517 585.107 179.822 585.107C186.128 585.107 191.822 588.845 194.352 594.615L203.971 616.67C204.918 618.839 206.625 620.546 208.794 621.493L230.849 631.112C236.619 633.642 240.357 639.337 240.357 645.642C240.357 651.947 236.619 657.641 230.849 660.171L209.853 669.33C249.653 679.36 295.01 685.915 345.065 685.329Z" fill="#314AF3"/>
<path fill-rule="evenodd" clip-rule="evenodd" d="M430.542 156.782C427.989 162.498 430.567 169.211 436.283 171.752L462.274 183.334L412.185 277.496L494.268 430.913H420.816C412.796 407.75 390.753 391.074 364.899 391.074H312.394C286.54 391.074 264.497 407.75 256.477 430.913H179.6L224.072 208.104L458.6 41L576.363 208.602L498.066 174.429L445.524 151.029C444.03 150.369 442.46 150.045 440.916 150.045C436.57 150.045 432.423 152.548 430.542 156.782ZM253.263 504.205H129.772V488.314C129.772 467.678 146.497 450.953 167.133 450.953H253.238V502.735C253.238 503.234 253.238 503.719 253.263 504.205ZM549.487 504.205V488.314C549.487 467.678 532.762 450.953 512.126 450.953H424.053V502.735C424.053 503.234 424.053 503.719 424.028 504.205H549.487ZM401.637 450.225V502.73C401.637 503.216 401.624 503.714 401.6 504.199C401.326 511.51 398.897 518.272 394.924 523.889C388.287 533.316 377.315 539.468 364.898 539.468H312.394C299.591 539.468 288.308 532.918 281.745 522.967C278.146 517.55 275.954 511.111 275.692 504.199C275.668 503.714 275.655 503.216 275.655 502.73V450.225C275.655 443.139 277.66 436.513 281.147 430.909C287.611 420.448 299.193 413.487 312.394 413.487H364.898C378.112 413.487 389.681 420.448 396.145 430.909C399.632 436.513 401.637 443.139 401.637 450.225ZM344.761 685.964C495.949 684.208 602.204 618.365 640.86 591.664L559.251 525.211L420.068 524.09C411.488 546.183 389.993 561.887 364.898 561.887H312.393C286.801 561.887 264.957 545.548 256.738 522.77H121.466C94.3443 546.489 67.223 570.195 40.1017 593.901L39.8688 594.105C55.548 604.753 83.1205 622.25 120.818 639.125C122.449 635.912 125.164 633.297 128.589 631.79L150.657 622.163C152.824 621.217 154.543 619.51 155.477 617.344L165.103 595.3C167.619 589.534 173.31 585.798 179.612 585.798C185.914 585.798 191.605 589.534 194.133 595.3L203.747 617.344C204.694 619.51 206.4 621.217 208.567 622.163L230.61 631.777C236.376 634.305 240.112 639.997 240.112 646.298C240.112 652.6 236.376 658.291 230.61 660.819L209.625 669.973C249.403 679.998 294.734 686.549 344.761 685.964Z" fill="url(#paint0_linear_4004_1215)"/>
<path d="M226.251 647.778L204.195 657.41C200.333 659.092 197.031 661.784 194.638 665.186C193.716 666.469 192.931 667.84 192.295 669.31L182.688 691.328C182.314 692.188 181.517 692.612 180.719 692.612C179.922 692.612 179.124 692.188 178.763 691.328L169.455 669.684C167.15 664.338 162.925 660.064 157.605 657.722L135.138 647.778C133.605 647.105 133.456 645.111 134.652 644.177C134.789 644.052 134.951 643.953 135.138 643.878L157.218 634.233C162.539 631.916 166.801 627.666 169.118 622.333L178.751 600.278C179.124 599.418 179.909 598.994 180.707 598.994C181.504 598.994 182.302 599.418 182.663 600.278L192.295 622.333C194.613 627.654 198.862 631.916 204.195 634.233L226.251 643.865C227.958 644.601 227.958 647.03 226.251 647.778Z" fill="#FFAB02"/>
<path d="M135.029 422.307L140.744 409.218C142.118 406.061 144.644 403.519 147.818 402.145L160.922 396.43C161.932 395.988 161.932 394.536 160.922 394.109L147.818 388.394C144.66 387.02 142.118 384.494 140.744 381.321L135.029 368.217C134.587 367.206 133.135 367.206 132.708 368.217L126.993 381.321C125.619 384.479 123.093 387.02 119.92 388.394L106.8 394.125C105.79 394.567 105.79 396.004 106.8 396.446L120.141 402.351C123.299 403.74 125.809 406.282 127.167 409.455L132.708 422.307C133.15 423.317 134.603 423.333 135.029 422.307Z" fill="#FFAB02"/>
<path d="M455.054 310.3L473.39 318.396C477.746 320.315 481.178 323.831 483.041 328.145L490.647 345.808C491.263 347.237 493.224 347.237 493.855 345.808L501.685 327.823C503.604 323.467 507.064 319.993 511.392 318.116L529.377 310.286C530.75 309.669 530.75 307.708 529.377 307.078L511.392 299.248C507.036 297.329 503.562 293.869 501.685 289.541L493.855 271.555C493.239 270.183 491.277 270.183 490.647 271.555L482.817 289.541C480.898 293.897 477.438 297.371 473.11 299.248L455.082 307.12C453.71 307.736 453.71 309.697 455.082 310.328L455.04 310.286L455.054 310.3Z" fill="#FFAB02"/>
<rect x="744" y="135" width="956" height="301" rx="71" fill="#314AF3"/>
<rect x="744" y="135" width="956" height="301" rx="71" fill="url(#paint1_linear_4004_1215)"/>
<path d="M911.778 367.55C905.287 367.55 898.642 367.009 891.842 365.927C885.197 365 878.783 363.609 872.602 361.755C866.575 359.9 861.166 357.582 856.375 354.8C852.975 352.946 850.58 350.55 849.189 347.614C847.798 344.523 847.257 341.432 847.566 338.342C848.03 335.251 849.189 332.546 851.043 330.228C853.052 327.756 855.525 326.21 858.461 325.592C861.552 324.819 864.952 325.36 868.661 327.215C874.997 330.769 881.874 333.396 889.292 335.096C896.865 336.796 904.36 337.646 911.778 337.646C923.059 337.646 931.096 335.946 935.886 332.546C940.677 328.992 943.073 324.587 943.073 319.333C943.073 314.851 941.373 311.297 937.973 308.67C934.573 306.043 928.623 303.802 920.123 301.947L893.928 296.384C879.092 293.293 868.043 288.038 860.779 280.621C853.67 273.048 850.116 263.157 850.116 250.949C850.116 243.222 851.739 236.19 854.984 229.854C858.229 223.518 862.788 218.031 868.661 213.395C874.533 208.759 881.488 205.204 889.524 202.732C897.715 200.259 906.678 199.023 916.414 199.023C925.068 199.023 933.568 200.105 941.913 202.268C950.259 204.277 957.599 207.291 963.936 211.309C967.026 213.163 969.113 215.559 970.194 218.495C971.431 221.277 971.817 224.136 971.354 227.072C971.044 229.854 969.885 232.326 967.876 234.49C966.022 236.654 963.626 238.044 960.69 238.663C957.754 239.281 954.199 238.585 950.027 236.576C944.927 233.949 939.518 232.017 933.8 230.781C928.082 229.545 922.209 228.926 916.182 228.926C909.692 228.926 904.128 229.776 899.492 231.476C895.01 233.176 891.533 235.572 889.06 238.663C886.742 241.753 885.583 245.308 885.583 249.326C885.583 253.808 887.206 257.439 890.451 260.221C893.697 263.003 899.337 265.244 907.373 266.944L933.568 272.507C948.713 275.752 959.995 281.007 967.413 288.27C974.831 295.379 978.54 304.806 978.54 316.551C978.54 324.278 976.994 331.31 973.903 337.646C970.813 343.828 966.331 349.16 960.458 353.641C954.586 358.123 947.554 361.6 939.364 364.073C931.173 366.391 921.978 367.55 911.778 367.55ZM1076.51 367.55C1058.89 367.55 1043.82 364.073 1031.31 357.118C1018.79 350.164 1009.13 340.428 1002.33 327.91C995.684 315.238 992.361 300.325 992.361 283.17C992.361 270.344 994.216 258.83 997.925 248.63C1001.79 238.276 1007.35 229.467 1014.62 222.204C1021.88 214.786 1030.69 209.068 1041.04 205.05C1051.55 201.032 1063.37 199.023 1076.51 199.023C1084.24 199.023 1092.04 200.027 1099.92 202.036C1107.96 203.891 1114.91 206.595 1120.79 210.15C1124.65 212.313 1127.28 215.018 1128.67 218.263C1130.06 221.509 1130.44 224.754 1129.83 227.999C1129.36 231.245 1128.05 234.026 1125.89 236.344C1123.88 238.663 1121.33 240.131 1118.24 240.749C1115.14 241.367 1111.67 240.672 1107.8 238.663C1103.17 235.881 1098.3 233.872 1093.2 232.635C1088.1 231.399 1082.92 230.781 1077.67 230.781C1067.31 230.781 1058.58 232.867 1051.47 237.04C1044.52 241.058 1039.26 246.931 1035.71 254.658C1032.16 262.385 1030.38 271.889 1030.38 283.17C1030.38 294.297 1032.16 303.802 1035.71 311.683C1039.26 319.565 1044.52 325.592 1051.47 329.765C1058.58 333.783 1067.31 335.792 1077.67 335.792C1082.61 335.792 1087.64 335.174 1092.74 333.937C1097.99 332.701 1103.01 330.769 1107.8 328.142C1111.82 326.133 1115.38 325.437 1118.47 326.056C1121.71 326.519 1124.34 327.91 1126.35 330.228C1128.51 332.392 1129.83 335.019 1130.29 338.11C1130.91 341.201 1130.6 344.291 1129.36 347.382C1128.13 350.473 1125.81 353.1 1122.41 355.264C1116.69 359.127 1109.66 362.141 1101.31 364.305C1092.97 366.468 1084.7 367.55 1076.51 367.55ZM1224.68 367.55C1207.06 367.55 1191.99 364.073 1179.48 357.118C1166.96 350.164 1157.3 340.428 1150.5 327.91C1143.85 315.238 1140.53 300.325 1140.53 283.17C1140.53 270.344 1142.39 258.83 1146.09 248.63C1149.96 238.276 1155.52 229.467 1162.78 222.204C1170.05 214.786 1178.86 209.068 1189.21 205.05C1199.72 201.032 1211.54 199.023 1224.68 199.023C1232.41 199.023 1240.21 200.027 1248.09 202.036C1256.13 203.891 1263.08 206.595 1268.95 210.15C1272.82 212.313 1275.45 215.018 1276.84 218.263C1278.23 221.509 1278.61 224.754 1278 227.999C1277.53 231.245 1276.22 234.026 1274.05 236.344C1272.05 238.663 1269.5 240.131 1266.4 240.749C1263.31 241.367 1259.84 240.672 1255.97 238.663C1251.34 235.881 1246.47 233.872 1241.37 232.635C1236.27 231.399 1231.09 230.781 1225.84 230.781C1215.48 230.781 1206.75 232.867 1199.64 237.04C1192.69 241.058 1187.43 246.931 1183.88 254.658C1180.33 262.385 1178.55 271.889 1178.55 283.17C1178.55 294.297 1180.33 303.802 1183.88 311.683C1187.43 319.565 1192.69 325.592 1199.64 329.765C1206.75 333.783 1215.48 335.792 1225.84 335.792C1230.78 335.792 1235.81 335.174 1240.91 333.937C1246.16 332.701 1251.18 330.769 1255.97 328.142C1259.99 326.133 1263.55 325.437 1266.64 326.056C1269.88 326.519 1272.51 327.91 1274.52 330.228C1276.68 332.392 1278 335.019 1278.46 338.11C1279.08 341.201 1278.77 344.291 1277.53 347.382C1276.3 350.473 1273.98 353.1 1270.58 355.264C1264.86 359.127 1257.83 362.141 1249.48 364.305C1241.14 366.468 1232.87 367.55 1224.68 367.55ZM1389.47 367.086C1385.14 367.086 1381.59 366.082 1378.81 364.073C1376.18 362.064 1374.48 359.359 1373.71 355.959C1373.09 352.559 1373.79 348.773 1375.79 344.601L1435.14 214.554C1437.61 209.3 1440.55 205.514 1443.95 203.195C1447.35 200.723 1451.29 199.486 1455.77 199.486C1460.25 199.486 1464.19 200.723 1467.59 203.195C1470.99 205.514 1473.85 209.3 1476.17 214.554L1535.98 344.601C1537.99 348.773 1538.68 352.637 1538.06 356.191C1537.6 359.591 1536.05 362.296 1533.43 364.305C1530.8 366.159 1527.4 367.086 1523.23 367.086C1517.97 367.086 1513.88 365.85 1510.94 363.377C1508.16 360.905 1505.69 357.041 1503.52 351.787L1489.61 319.565L1503.99 329.533H1407.32L1421.69 319.565L1408.02 351.787C1405.7 357.196 1403.23 361.136 1400.6 363.609C1398.13 365.927 1394.42 367.086 1389.47 367.086ZM1455.31 239.822L1425.63 310.524L1419.38 301.484H1491.93L1485.67 310.524L1455.77 239.822H1455.31ZM1572.82 367.086C1566.95 367.086 1562.46 365.464 1559.37 362.218C1556.28 358.973 1554.74 354.414 1554.74 348.541V218.031C1554.74 212.159 1556.28 207.6 1559.37 204.354C1562.46 201.109 1566.95 199.486 1572.82 199.486C1578.54 199.486 1582.94 201.109 1586.03 204.354C1589.12 207.6 1590.67 212.159 1590.67 218.031V348.541C1590.67 354.414 1589.12 358.973 1586.03 362.218C1583.1 365.464 1578.69 367.086 1572.82 367.086Z" fill="white"/>
<path d="M816.087 671.086C811.141 671.086 807.123 669.927 804.033 667.609C800.942 665.136 798.469 661.427 796.615 656.482L749.789 524.813C747.78 518.941 748.166 513.918 750.948 509.745C753.884 505.573 758.907 503.486 766.015 503.486C770.961 503.486 774.747 504.645 777.374 506.964C780.156 509.282 782.397 512.913 784.097 517.859L822.346 631.678H812.378L852.713 518.091C854.568 513.145 856.808 509.514 859.436 507.195C862.217 504.723 865.849 503.486 870.331 503.486C874.658 503.486 878.135 504.723 880.762 507.195C883.389 509.514 885.63 513.222 887.485 518.322L925.966 631.678H917.388L956.333 517.859C957.878 513.068 960.042 509.514 962.824 507.195C965.605 504.723 969.392 503.486 974.182 503.486C980.209 503.486 984.614 505.573 987.396 509.745C990.177 513.918 990.486 518.941 988.323 524.813L941.033 656.714C939.333 661.505 937.015 665.136 934.079 667.609C931.143 669.927 927.125 671.086 922.025 671.086C917.079 671.086 913.139 669.927 910.202 667.609C907.266 665.136 904.871 661.427 903.016 656.482L866.39 552.862H871.953L834.864 656.714C833.009 661.505 830.614 665.136 827.677 667.609C824.896 669.927 821.032 671.086 816.087 671.086ZM1028.69 671.086C1022.81 671.086 1018.33 669.464 1015.24 666.218C1012.15 662.973 1010.6 658.414 1010.6 652.541V522.031C1010.6 516.159 1012.15 511.6 1015.24 508.354C1018.33 505.109 1022.81 503.486 1028.69 503.486C1034.4 503.486 1038.81 505.109 1041.9 508.354C1044.99 511.6 1046.53 516.159 1046.53 522.031V652.541C1046.53 658.414 1044.99 662.973 1041.9 666.218C1038.96 669.464 1034.56 671.086 1028.69 671.086ZM1085.45 669C1080.81 669 1077.03 668.073 1074.09 666.218C1071.16 664.209 1069.15 661.582 1068.06 658.337C1067.14 654.937 1067.14 651.228 1068.06 647.21C1069.15 643.192 1071.31 639.174 1074.56 635.155L1158.93 524.581V535.476H1082.67C1077.57 535.476 1073.63 534.163 1070.85 531.536C1068.22 528.908 1066.91 525.199 1066.91 520.409C1066.91 515.618 1068.22 511.986 1070.85 509.514C1073.63 506.886 1077.57 505.573 1082.67 505.573H1175.86C1180.65 505.573 1184.43 506.577 1187.22 508.586C1190.15 510.441 1192.16 512.991 1193.24 516.236C1194.32 519.481 1194.32 523.19 1193.24 527.363C1192.16 531.381 1190 535.399 1186.75 539.417L1102.37 649.76V639.096H1182.35C1187.45 639.096 1191.31 640.41 1193.94 643.037C1196.72 645.51 1198.11 649.141 1198.11 653.932C1198.11 658.878 1196.72 662.664 1193.94 665.291C1191.31 667.764 1187.45 669 1182.35 669H1085.45ZM1224.41 671.086C1220.09 671.086 1216.53 670.082 1213.75 668.073C1211.12 666.064 1209.42 663.359 1208.65 659.959C1208.03 656.559 1208.73 652.773 1210.74 648.601L1270.08 518.554C1272.55 513.3 1275.49 509.514 1278.89 507.195C1282.29 504.723 1286.23 503.486 1290.71 503.486C1295.19 503.486 1299.13 504.723 1302.53 507.195C1305.93 509.514 1308.79 513.3 1311.11 518.554L1370.92 648.601C1372.93 652.773 1373.62 656.637 1373.01 660.191C1372.54 663.591 1371 666.296 1368.37 668.305C1365.74 670.159 1362.34 671.086 1358.17 671.086C1352.92 671.086 1348.82 669.85 1345.88 667.377C1343.1 664.905 1340.63 661.041 1338.47 655.787L1324.56 623.565L1338.93 633.533H1242.26L1256.64 623.565L1242.96 655.787C1240.64 661.196 1238.17 665.136 1235.54 667.609C1233.07 669.927 1229.36 671.086 1224.41 671.086ZM1290.25 543.822L1260.58 614.524L1254.32 605.484H1326.87L1320.62 614.524L1290.71 543.822H1290.25ZM1407.76 671.086C1401.89 671.086 1397.41 669.464 1394.32 666.218C1391.22 662.973 1389.68 658.414 1389.68 652.541V523.886C1389.68 517.859 1391.22 513.3 1394.32 510.209C1397.56 507.118 1402.12 505.573 1407.99 505.573H1464.32C1482.56 505.573 1496.62 509.977 1506.51 518.786C1516.4 527.595 1521.35 539.881 1521.35 555.644C1521.35 565.844 1519.11 574.653 1514.63 582.071C1510.14 589.489 1503.65 595.207 1495.15 599.225C1486.81 603.243 1476.53 605.252 1464.32 605.252L1466.18 601.311H1475.68C1482.17 601.311 1487.81 602.934 1492.6 606.179C1497.55 609.27 1501.8 614.061 1505.35 620.551L1519.73 647.21C1521.89 651.073 1522.89 654.859 1522.74 658.568C1522.58 662.277 1521.19 665.291 1518.57 667.609C1515.94 669.927 1512.08 671.086 1506.98 671.086C1501.88 671.086 1497.7 670.005 1494.46 667.841C1491.37 665.677 1488.59 662.355 1486.11 657.873L1463.86 616.842C1461.54 612.515 1458.68 609.579 1455.28 608.034C1452.04 606.488 1448.02 605.715 1443.23 605.715H1425.61V652.541C1425.61 658.414 1424.06 662.973 1420.97 666.218C1418.04 669.464 1413.63 671.086 1407.76 671.086ZM1425.61 579.752H1457.83C1467.41 579.752 1474.6 577.821 1479.39 573.957C1484.34 570.094 1486.81 564.298 1486.81 556.571C1486.81 548.999 1484.34 543.281 1479.39 539.417C1474.6 535.554 1467.41 533.622 1457.83 533.622H1425.61V579.752ZM1560.59 669C1554.56 669 1549.93 667.377 1546.68 664.132C1543.44 660.887 1541.82 656.25 1541.82 650.223V524.349C1541.82 518.322 1543.44 513.686 1546.68 510.441C1549.93 507.195 1554.56 505.573 1560.59 505.573H1605.8C1633.77 505.573 1655.33 512.682 1670.47 526.899C1685.77 540.963 1693.42 561.053 1693.42 587.17C1693.42 600.306 1691.41 611.974 1687.39 622.174C1683.53 632.219 1677.89 640.719 1670.47 647.673C1663.05 654.628 1653.93 659.959 1643.12 663.668C1632.3 667.223 1619.86 669 1605.8 669H1560.59ZM1577.75 639.56H1603.71C1612.52 639.56 1620.17 638.478 1626.66 636.315C1633.15 634.151 1638.56 630.906 1642.89 626.578C1647.21 622.251 1650.46 616.842 1652.62 610.352C1654.78 603.706 1655.87 595.979 1655.87 587.17C1655.87 569.553 1651.46 556.494 1642.65 547.994C1634 539.34 1621.02 535.013 1603.71 535.013H1577.75V639.56Z" fill="#575756"/>
</g>
<defs>
<linearGradient id="paint0_linear_4004_1215" x1="40.0966" y1="607.623" x2="571.165" y2="113.334" gradientUnits="userSpaceOnUse">
<stop stop-color="#314AF3"/>
<stop offset="1" stop-color="#7D30F2"/>
</linearGradient>
<linearGradient id="paint1_linear_4004_1215" x1="763.5" y1="416.194" x2="1814.5" y2="120" gradientUnits="userSpaceOnUse">
<stop stop-color="#314AF3"/>
<stop offset="1" stop-color="#7832F3"/>
</linearGradient>
<clipPath id="clip0_4004_1215">
<rect width="1745" height="733" fill="white"/>
</clipPath>
</defs>
</svg>
